<svg width="378" height="378" viewBox="0 0 378 378" fill="none" xmlns="http://www.w3.org/2000/svg">
<path d="M189 378C293.382 378 378 293.382 378 189C378 84.6182 293.382 0 189 0C84.6182 0 0 84.6182 0 189C0 293.382 84.6182 378 189 378Z" fill="#CD181F"/>
<path d="M208 189.3L224.1 210L246.4 236.6C246.1 238.6 245.3 240.7 244.1 242.9C241.4 248.3 239.3 250.9 237.8 250.9H235.8C235.5 250.9 235 251.6 234.2 252.9C233.4 254.3 233 255.3 233 256.1C233 257.6 232 259.2 229.9 261C227.8 263.1 226.4 264.2 225.7 264.2C225.2 264.2 223.9 263.4 221.8 261.9C221.6 261.8 221.1 261.4 220.3 260.7C219.4 260 218.8 259.6 218.4 259.6C218.3 259.6 216.8 261.1 214.1 264C211.3 266.9 209.2 268.4 207.6 268.4C207.5 268.4 207.2 268.3 206.7 268.1C206.2 267.9 205.8 267.8 205.5 267.8C201 263.2 195.5 256.2 188.9 246.5C182.3 236.9 178.2 231 176.6 228.9L171.9 235.1L138.8 279.6L137 281.9H133.6L128.7 276.5C128.7 276.2 128.8 275.6 129.1 274.7C129.4 273.8 129.5 273.2 129.5 272.9C129.5 272 129.1 271.6 128.2 271.6C127.4 271.6 126.7 271.7 126.1 271.9C125.4 272.1 124.7 272.5 123.7 272.9C122.8 273.3 122.2 273.6 121.9 273.7C121.1 273.3 120.4 272.8 119.7 272.1C119 271.4 118.3 270.6 117.6 269.5C116.9 268.5 116.4 267.6 116 267C115.6 266.3 115.2 265.5 114.7 264.7C113 262.1 112.1 260.7 112.1 260.5C112.1 260.1 112.6 259.2 113.6 257.8C114.6 256.4 115.1 255.1 115.1 253.8C115.1 252.8 114.4 251 113.1 248.5C111.8 246 111.1 244.4 110.9 243.6L133.2 216.7L154.1 192.1C139.2 164.2 129.2 141.6 124.1 124.2C126 120.5 129.2 116.7 133.5 112.8C134 112.9 135 113.7 136.6 115.3C138.1 116.9 139 117.7 139.2 117.7C141.6 117.7 142.8 116.1 142.8 112.8C142.8 111.2 143.5 109.7 144.9 108.4C146.3 107.1 147.9 106.5 149.6 106.5C151.4 106.5 153.2 108.1 155 111.2L183.5 154.5L185.6 157.1C187.8 154.5 193.9 147.9 204.1 137.3C214.2 126.7 223.5 117.2 232 108.7C240.5 100.2 245.2 96 246.3 96C246.9 96 248.5 97.2 251.3 99.7C254 102.1 255.4 104.2 255.4 105.9C254.7 106.6 254.4 107.2 254.4 107.7C254.4 108.3 255.1 109 256.5 109.9C257.9 110.8 259.4 111.3 261.1 111.3C262.3 111.3 263.4 111.8 264.2 112.9L268.1 118.6C268.1 119.3 267.5 120.4 266.4 122C265.3 123.6 264.7 124.5 264.7 124.8C264.7 125.1 261.7 128.6 255.8 135.4C249.9 142.2 234.5 159.7 209.5 187.7L208 189.3Z" fill="white"/>
</svg>
